<svg xmlns="http://www.w3.org/2000/svg" viewBox="0 0 842.64 138.73"><defs><style>.a{fill-rule:evenodd;}</style></defs><path class="a" d="M110.63,12.89c-2.26.2-1.42-.39-1.72.2-2.55-.18-6.69,1.41-8.55,2.6-4.93,3.17-3.69,2.79-6.63-.17-3.8-3.77-10.17-6.39-17.26-6.39-2.73,0-5.86,1-8.4,1.66-3,.74-4.83,2.21-7.33,3.45a7.87,7.87,0,0,0-3.21,2.17,22.55,22.55,0,0,1-2.63,2.74c-2.48,2.48-4.4,7.46-5,11-.4,2.42-1.33,1-3.43,1.14a22.67,22.67,0,0,0-8.66,2.14c-5.59,3.1-10.38,9.66-8,16.86.46,1.38,1.3,2.15,1.33,3.76a28.12,28.12,0,0,1-3.06,1.76c-4.57,2.28-9.3,7.52-11.46,12.11-2.74,5.82-2.42,10-1.29,15.93.56,3,1.82,4.17,3.08,6.4C20.13,93.11,26.1,97,30,97.64c-.33,3.16-3,5.47-3.52,12-.16,2,.18,2.11.18,4,0,3.61,2.42,7.91,4.05,10.23,1.06,1.53,2.34,2.56,3.34,3.9a17.8,17.8,0,0,0,4.28,2.8c3.08,1.43,3.22.77,5.54,1.42,2.1.57,7.68-5.79,13.09-7v-.5c-.38-.11-4.79-3.24-5.25-3.66-5.21-4.89-9.42-7.87-10.5-16-.72-5.46,3.83-9,9-7.69a22.76,22.76,0,0,1,3,1.39c.25.13,1.82,1.87,2.18,2.26,1.68,1.75,2.69,4.87,3.41,5.43-.1-1.74-1.78-4.57-2.62-5.82-2-2.87-2.36-1.81-.53-5.5a17.52,17.52,0,0,1,3.58-4.73c2.16-1.71,1.07-3.29,2.07-6.13,1.6-4.58,4.24-6.3,9.36-7,4.42-.65,8.57,3.47,8.57,7.67a15,15,0,0,1-.74,4.22c-1.34,3.28-5.77,2.64-8.34,1.64.83,2.66,9,3.06,10.09-4,1.14-7.47-7.31-14.71-15.89-7.7a16.23,16.23,0,0,0-1.53,1.45c-.53.53-.87,1.19-1.31,1.59-2,.78-13.69-6.38-13.69-15.31,0-2-.56-1.31-2.89-.3-.83.36-2.62,1.28-3.55.78C39.3,63.3,47.83,64.82,48,62c-6.42.12-7.9,1-7-2.49.62-.06.63-.24,1-.17l3.16.32c.78,0,3.58.45,3.38-1-.77-1.51-6.92-1.43-7.39-3A1,1,0,0,1,42,53.94c.93,0,5.93,1.62,7.32,1.88,1-2,1.58-4.23,2.75-6.18s2.43-3.55,3.65-5.21a37,37,0,0,1,9-8.68c.3-6.93,2.34-11,6.3-14.39a13,13,0,0,1,2.87-2.3,30.58,30.58,0,0,1,3.5-1.68,7.49,7.49,0,0,1,4.47,0c1.3.65,1.36,1.92,1.36,3.72A29.13,29.13,0,0,1,83,26.72c-.76,5-.36,1.71-2.12,3.88l4-.39c8-.8,17.38,3.44,18.87,3.43l-1.93-1.5c0-2.72,6.68-10.65,10.66-10.59,4.64.08,6.44,9.69,6.26,14.93l-.09,1.1c0,.33.15,3.64.21,3.79a19,19,0,0,0,2,2.24,25.24,25.24,0,0,1,6,11.36c.18.91.83,2.59.87,3.37.1,1.3-.25,3.16.19,4.22l2.29-.34c1.65.14,3.82-.21,3.82,2,0,1.38-5.37.58-6.2.68l-.46,2.36a32.33,32.33,0,0,0,3.95,1.09c3.68,1.19,3.05,4.09-1.82,2.49-1.42-.48-2.91-1.49-3.19,0l4.2,2.34c.05,4.4-3.62.29-5.56.24a24.81,24.81,0,0,1-2.35,3.77c-.86,1.22-5.65,4.38-7.09,5.12-6.28,3.25-4.38-.45-2.49,8.14a54.94,54.94,0,0,1,1,10.85,51.75,51.75,0,0,1-2.09,9.55c-3.32,8.87-7.16,13.16-15.7,17.42-7,3.5-18.84,4-27.84,2.42-1.62-.29-5.21,1.22-6.3,1.79a19.82,19.82,0,0,0-4.82,3.54,22.33,22.33,0,0,0-2.24,2c-.83,1.07-5.24,6.57-5.15,7.13.27,1.5,9.28,3,10.89,2.54.53-.15.9.15,1.09.09,3.49-1.09,5.23-1.38,8.31-3.32,1.15-.73,1.66-1.33,2.74-2.1.66-.49,1.88-2.2,2.31-2.33.84-.65,5.69,2.23,6.81,2.72a55.24,55.24,0,0,0,7.9,1.93l6.86-.51c3-.89,8.52-1.94,11.11-3.69,3.93-2.67,4.47-2.52,8-6.87a19,19,0,0,0,3.66-10.46c0-.77-.74-3.13.46-3.13s4.57,1,5.82.75c3.14-.64,6-.44,8.84-2.26a19.06,19.06,0,0,0,2.1-1.25c3.63-3.11,4.76-4.17,7.16-9,1.74-3.5,1.84-5.7,2-10.47l.14,2.48a22.16,22.16,0,0,0-1.56-9.46c-.71-1.51-.29-1.06-.36-2.34,5.41-.92,9.71-5.15,9-10.49a9.87,9.87,0,0,0-1-3.41c-.8-1.91-1-1.66-2.25-3a10,10,0,0,0-4.9-2.5,7.35,7.35,0,0,1-1.95-.13c-1.07-.91,1.76-2.48,3.65-5.62,4.17-6.89,3.74-14.88.37-22.08-2.2-4.74-4.61-7.75-9.15-10.15a15.78,15.78,0,0,0-6.29-1.89C126.22,28.76,125,30.6,125,28a16.89,16.89,0,0,0-1.85-6.8,14.29,14.29,0,0,0-9.49-7.62A20.41,20.41,0,0,0,110.63,12.89Z" transform="translate(-9.65 -9.13)"/><path class="a" d="M14.59,110.25c3.65,0,6.93-3.61,6.93-6.15,0-2.13-1.86-4.71-3.64-5.18-2.7-.71-3.46-.24-5.83,1.14C7.91,102.47,9.37,110.25,14.59,110.25Z" transform="translate(-9.65 -9.13)"/><path class="a" d="M137,131.15c.36-1.71-1.53-5-5.24-3.16-5.08,2.52-4.84,8.42-2.77,9.29,1.44.59,2.68-.06,3.87-.53a5.77,5.77,0,0,0,2.77-2.1C137.48,131.42,136.54,133,137,131.15Z" transform="translate(-9.65 -9.13)"/><path class="a" d="M69.88,113.55a16.85,16.85,0,0,0,2.51,5.94c.62.75.56,1.34,1.56,1.54a8.77,8.77,0,0,0-1-1.71,11.5,11.5,0,0,1-.92-1.86c-1.1-2.46-1.3-6.66.07-8.85a8.34,8.34,0,0,1,3.13-2.39,10.8,10.8,0,0,1,4.49.06c2.49.59,2,.29,3.75,1.78a15.19,15.19,0,0,1,3.83,5.56,1.55,1.55,0,0,0,.73.92c0-2.07-2.27-4.86-3.26-6.3-1.48-2.14-3.37-2.79-5.65-3.89a7,7,0,0,0-3.8.25C71.41,106.85,69.88,108.32,69.88,113.55Z" transform="translate(-9.65 -9.13)"/><path class="a" d="M93.23,95.28a1.48,1.48,0,0,0-1.57-.07v.1s0,0,0,0a11.65,11.65,0,0,1-3.29-.4c-1.85-.72-3.15-1.42-4-3.37-.5-1.13-.45-5.19.49-6.54.63-.9.63-.21,1.84-1.57.18-.21-.09-.27,1-.57a10.49,10.49,0,0,1,6.85-.12,21.16,21.16,0,0,1,2.76,1.1c1,.56,3.19,3.1,4.29,3.61-.27-1.36-2.14-2.82-3.2-3.61a13.69,13.69,0,0,0-4.58-2.12A7.64,7.64,0,0,0,89,81.52a8.48,8.48,0,0,0-4.5,2.4c-1,1.25-1.41,3.29-1.81,4.77-.62,2.23,1.91,6.2,5.22,7.21A5.81,5.81,0,0,0,93.23,95.28Z" transform="translate(-9.65 -9.13)"/><path class="a" d="M92.53,66.92c1.47.32,2.59-1.46,5.5-1.78.38,0,.62,0,.92-.06.82-.15-.47-.08.71-.2,2.44-.24,6,1.56,6,1.56.91.17,1.09-.54.45-1.24-1.63-1.8-6.27-2.61-7.6-2.28a12.45,12.45,0,0,0-3.46,1.22A4.06,4.06,0,0,0,92.53,66.92Z" transform="translate(-9.65 -9.13)"/><path class="a" d="M64.25,59.44A14.72,14.72,0,0,0,62,59.6c-.77.21-3.66,1.28-2.65,2.31.5.51,1.06-.21,1.82-.47l3.58-.64c4.32.17,5.5,2.5,6.68,3.52,1.91,1.67,1.76-1.66-3-4.26a7.37,7.37,0,0,0-2-.63,5.83,5.83,0,0,0-1.11-.21C64,59.13,64.38,59.41,64.25,59.44Z" transform="translate(-9.65 -9.13)"/><path class="a" d="M78.07,66.42c.05.62-.21.52,1,1.56a3.38,3.38,0,0,0,1.74.8,4.26,4.26,0,0,1,.39-.54c.54-.65,1-.76,1.1-1.14s-.22-.54-2.14-.8A6.39,6.39,0,0,0,78.07,66.42Z" transform="translate(-9.65 -9.13)"/><path d="M180.61,79.93c0-17.28,10.51-27.65,23.91-27.65a20.41,20.41,0,0,1,15,6.7L215,64.31c-2.74-2.81-6.05-4.76-10.37-4.76-9.15,0-15.48,7.64-15.48,20.09S195.08,100,204.44,100c4.83,0,8.57-2.16,11.74-5.62l4.46,5.26a20.88,20.88,0,0,1-16.48,7.63C190.83,107.22,180.61,97.28,180.61,79.93Z" transform="translate(-9.65 -9.13)"/><path d="M227,95.77c0-8.49,7.2-12.89,23.69-14.69-.08-4.61-1.73-8.64-7.56-8.64-4.18,0-8.07,1.87-11.45,4l-3.1-5.61c4.11-2.59,9.65-5.19,16-5.19,9.86,0,14.4,6.27,14.4,16.78v23.84h-6.77l-.72-4.54h-.22c-3.6,3.09-7.85,5.47-12.6,5.47C231.8,107.22,227,102.76,227,95.77Zm23.69.29V86.34C238.93,87.78,235,90.73,235,95.2c0,3.88,2.66,5.47,6.19,5.47S247.43,99,250.67,96.06Z" transform="translate(-9.65 -9.13)"/><path d="M270.75,93.32v-20H265v-6.2l6.12-.43.94-10.94h7V66.68h10.3v6.63H279V93.4c0,4.75,1.66,7.2,5.76,7.2a11.68,11.68,0,0,0,4.25-.94l1.51,6.12a25.29,25.29,0,0,1-7.77,1.44C273.85,107.22,270.75,101.68,270.75,93.32Z" transform="translate(-9.65 -9.13)"/><path d="M293,101.75l3.89-5.33c3.53,2.81,7,4.54,11.23,4.54,4.76,0,7-2.31,7-5.33,0-3.6-4.47-5.19-8.79-6.84-5.25-2-11.3-4.83-11.3-11.52s5.33-11.6,14-11.6A20.85,20.85,0,0,1,322,70.35l-3.89,5.12c-2.74-2-5.55-3.46-8.86-3.46-4.32,0-6.33,2.16-6.33,4.9,0,3.38,4.1,4.68,8.42,6.26,5.54,2.09,11.67,4.54,11.67,12,0,6.62-5.26,12-15,12A24.35,24.35,0,0,1,293,101.75Z" transform="translate(-9.65 -9.13)"/><path d="M332.1,59l-.22-8.5h8.57l-.22,8.5-1.65,14.33h-4.83Z" transform="translate(-9.65 -9.13)"/><path d="M353.91,53.29h8.35v21.6H385V53.29h8.35v53H385V82.16H362.26v24.13h-8.35Z" transform="translate(-9.65 -9.13)"/><path d="M403.66,86.56c0-13.25,8.86-20.89,18.65-20.89S441,73.31,441,86.56c0,13.1-8.85,20.66-18.65,20.66S403.66,99.66,403.66,86.56Zm28.81,0c0-8.43-3.89-14-10.16-14s-10.08,5.62-10.08,14,3.89,13.89,10.08,13.89S432.47,94.91,432.47,86.56Z" transform="translate(-9.65 -9.13)"/><path d="M450.18,91.6V66.68h8.28V90.59c0,6.84,1.94,9.5,6.62,9.5,3.67,0,6.19-1.73,9.51-5.9V66.68h8.28v39.61H476.1l-.65-6h-.22c-3.6,4.18-7.48,6.91-13,6.91C453.85,107.22,450.18,101.68,450.18,91.6Z" transform="translate(-9.65 -9.13)"/><path d="M491.14,101.75,495,96.42c3.53,2.81,7,4.54,11.23,4.54,4.76,0,7-2.31,7-5.33,0-3.6-4.47-5.19-8.79-6.84-5.25-2-11.3-4.83-11.3-11.52s5.33-11.6,14-11.6a20.85,20.85,0,0,1,12.89,4.68l-3.89,5.12c-2.74-2-5.54-3.46-8.86-3.46C503,72,501,74.17,501,76.91c0,3.38,4.1,4.68,8.42,6.26,5.55,2.09,11.67,4.54,11.67,12,0,6.62-5.26,12-15.05,12A24.38,24.38,0,0,1,491.14,101.75Z" transform="translate(-9.65 -9.13)"/><path d="M527.07,86.56c0-12.89,8.79-20.89,18.07-20.89,10.52,0,16.13,7.56,16.13,18.8a21,21,0,0,1-.36,4.17h-25.7c.65,7.56,5.4,12.1,12.24,12.1a16.82,16.82,0,0,0,9.43-2.95l2.88,5.25a24,24,0,0,1-13.39,4.18C535.64,107.22,527.07,99.59,527.07,86.56ZM554.14,83c0-6.85-3.09-10.81-8.85-10.81-5,0-9.36,3.82-10.16,10.81Z" transform="translate(-9.65 -9.13)"/><path d="M612,91.16H593.53L589,106.29h-8.5l17.57-53h9.65l17.57,53h-8.86Zm-2-6.55-2.08-7.13c-1.8-5.76-3.39-11.66-5-17.64h-.29c-1.52,6-3.17,11.88-4.9,17.64l-2.16,7.13Z" transform="translate(-9.65 -9.13)"/><path d="M631.54,66.68h6.77l.65,7.13h.21c2.81-5.11,7-8.14,11.24-8.14a9.77,9.77,0,0,1,4.46.87l-1.51,7.2a11.79,11.79,0,0,0-4-.65c-3.24,0-7.13,2.23-9.65,8.5v24.7h-8.21Z" transform="translate(-9.65 -9.13)"/><path d="M657.39,86.56c0-13.25,9.15-20.89,19.59-20.89a17,17,0,0,1,11.59,4.54l-4.11,5.4a10.39,10.39,0,0,0-7.12-3.1c-6.63,0-11.38,5.62-11.38,14s4.54,13.89,11.16,13.89a13.56,13.56,0,0,0,8.64-3.6l3.38,5.48a19.28,19.28,0,0,1-12.81,4.89C665.6,107.22,657.39,99.66,657.39,86.56Z" transform="translate(-9.65 -9.13)"/><path d="M697.42,48.9h8.21V64.09l-.29,7.85c3.46-3.31,7.42-6.27,12.82-6.27,8.42,0,12.17,5.62,12.17,15.7v24.92h-8.28V82.38c0-6.84-2-9.58-6.7-9.58-3.67,0-6.19,1.87-9.72,5.4v28.09h-8.21Z" transform="translate(-9.65 -9.13)"/><path d="M741,54.37c0-2.95,2.23-4.9,5.26-4.9s5.33,2,5.33,4.9-2.31,4.9-5.33,4.9S741,57.25,741,54.37Zm1.15,12.31h8.21v39.61h-8.21Z" transform="translate(-9.65 -9.13)"/><path d="M757.47,66.68H766L772.73,88c1.08,3.88,2.31,7.92,3.46,11.8h.29c1.15-3.88,2.37-7.92,3.45-11.8l6.77-21.32h8.07l-13.69,39.61h-9.57Z" transform="translate(-9.65 -9.13)"/><path d="M798.8,86.56c0-12.89,8.78-20.89,18.07-20.89,10.51,0,16.13,7.56,16.13,18.8a21,21,0,0,1-.36,4.17H806.93c.65,7.56,5.4,12.1,12.24,12.1a16.85,16.85,0,0,0,9.44-2.95l2.88,5.25a24,24,0,0,1-13.4,4.18C807.37,107.22,798.8,99.59,798.8,86.56ZM825.87,83c0-6.85-3.1-10.81-8.86-10.81-5,0-9.36,3.82-10.15,10.81Z" transform="translate(-9.65 -9.13)"/><path d="M841.2,101.46a5.56,5.56,0,1,1,11.09,0,5.55,5.55,0,1,1-11.09,0Z" transform="translate(-9.65 -9.13)"/></svg>